# xmcd
#
# Track frame offsets:
#  150
#  3060
#  24885
#  39685
#  53381
#
# Disc length: 1151 seconds
#
# Revision: 0
# Processed by: cddbd v1.5.1PL2 Copyright (c) Steve Scherf et al.
# Submitted via: Collectorz.com_Music_Collector 6.11
#
DISCID=26047d05
DTITLE=Todd Snider - Bbc Radio Januari 2006
DYEAR=2006
DGENRE=Alt Country
TTITLE0=Intro
TTITLE1=Ballad Of Kingsmen
TTITLE2=Interview Pt1
TTITLE3=Tillamook County Jail
TTITLE4=Interview Pt2
EXTD=
EXTT0=
EXTT1=
EXTT2=
EXTT3=
EXTT4=
PLAYORDER=
